<?xml version="1.0" standalone="no"?><!DOCTYPE svg PUBLIC "-//W3C//DTD SVG 1.1//EN" "http://www.w3.org/Graphics/SVG/1.1/DTD/svg11.dtd"><svg t="1604556734157" class="icon" viewBox="0 0 1024 1024" version="1.1" xmlns="http://www.w3.org/2000/svg" p-id="2228" xmlns:xlink="http://www.w3.org/1999/xlink" width="200" height="200"><defs><style type="text/css"></style></defs><path d="M555.151345 18.537184a151.745891 151.745891 0 0 1 170.567843 17.261583c8.874599 7.362992 17.066537 15.213598 23.941913 23.259252 23.551821 26.72132 36.376104 56.027002 39.204273 89.574936 1.755415 17.066537-3.949684 33.986789-15.603691 46.323457-12.239145 12.677999-29.403205 19.065759-46.76231 17.554152-15.798737-0.828946-27.842835-9.264691-36.814958-25.697328-3.559592-6.582807-6.485284-13.409422-9.557261-20.33356a312.756474 312.756474 0 0 0-7.31423-15.945021c-11.507722-22.57659-24.283244-33.157843-42.520057-35.108304-10.922583-1.657892-18.870713 3.657115-26.428751 9.313453a43.544049 43.544049 0 0 1-3.267022 2.145507 23.551821 23.551821 0 0 0-3.218262 2.291792c-10.581253 9.410976-19.797182 20.967459-28.135404 35.352112a326.458465 326.458465 0 0 0-19.455852 41.788634 467.086727 467.086727 0 0 0-12.775522 36.668673c-7.411753 24.868382-13.458183 50.126856-18.090528 75.6779-2.438077 12.873045-4.729869 25.74609-6.826615 38.667895-1.023992 6.04643-0.195046 8.045653 0.341331 8.777076 0.438854 0.487615 2.096746 1.706654 8.045653 1.804177 17.554152 0.195046 34.864496 0.195046 52.564932 0.195046h30.037105a73.1423 73.1423 0 0 1 19.212044 2.438077c17.700437 4.583584 31.987566 17.749198 38.229042 35.157065 5.363769 14.140845 4.973676 29.939581-1.170277 43.787857l-3.413307 6.534046c-6.485284 10.82506-16.578921 18.919475-28.476735 22.91792-10.922583 3.657115-22.869159 4.339776-30.866051 4.583585-24.868382 0.536377-49.736764 0.6339-74.653907 0.731423l-17.895483 0.048761c-2.438077 0-4.14473 0.487615-5.168723 1.462846-1.023992 0.975231-1.755415 2.87693-2.194269 5.656338l-3.315784 23.795628c-3.071977 22.625351-6.387761 45.835841-10.971345 68.656239a3709.533642 3709.533642 0 0 1-36.863719 168.129767 474.693526 474.693526 0 0 1-64.706555 147.357353 271.406694 271.406694 0 0 1-46.225933 54.905486c-18.188052 16.432637-39.545603 28.769305-62.804855 36.22982a143.066339 143.066339 0 0 1-84.454976 1.023992 185.001257 185.001257 0 0 1-27.062651-10.093638c-19.748421-9.118407-37.741427-22.430305-58.708886-43.25148a159.547737 159.547737 0 0 0-5.705099-5.510053c-3.998446-3.754638-7.94813-7.460515-11.45896-11.556483-11.068868-12.873045-14.140845-30.719766-8.435746-49.005341 2.438077-7.899368 5.753861-14.530937 10.142399-20.333559 12.873045-17.261583 28.720543-25.404759 44.763088-23.698106 5.705099 0.6339 11.556483 2.438077 17.212821 5.558815 10.239922 5.363769 19.797182 11.897814 26.867605 16.920252l8.58203 6.095192c5.607576 3.998446 11.166391 7.996891 16.87149 11.897814 29.354443 19.699659 47.493733 17.895483 72.069546-7.655561 17.212821-17.944244 31.451189-40.667119 44.860611-71.338123 3.900923-8.777076 7.509276-17.749198 11.068868-26.672559 22.966682-59.342786 34.913258-121.269933 42.715103-168.519858 3.413307-20.772413 6.387761-41.496065 9.459738-62.31724l5.656338-38.229042c0.585138-3.8034 0.341331-6.582807-0.6339-7.801845-1.316561-1.609131-4.729869-1.950461-7.31423-1.950462a7108.456317 7108.456317 0 0 1-88.745991-0.731423c-25.599805-0.341331-46.372218-14.774745-54.271586-37.643903a65.730547 65.730547 0 0 1-3.218262-24.380767c0.341331-6.777853 1.999223-13.458183 4.973677-19.602136 5.900146-12.385429 16.091306-22.235259 28.574258-27.696551 6.534045-2.925692 13.458183-4.632346 20.67489-5.119961 7.119184-0.487615 14.433414-0.341331 21.60136-0.195046l6.338999 0.097523 16.188829-0.097523 60.464301-0.585139a38.033996 38.033996 0 0 0 7.460515-0.585138c2.291792-0.487615 3.1695-1.023992 4.14473-3.900923a43.787857 43.787857 0 0 0 1.9017-7.509276c2.243031-12.336668 4.388538-24.575813 6.485284-36.814957 5.168723-31.694997 11.45896-63.194947 18.870713-94.402329 3.8034-15.993783 7.996891-30.52472 12.775522-44.421757 4.876153-14.725983 10.434968-29.110635 16.578921-42.812626 13.458183-29.744535 29.208158-55.636909 48.273918-79.237491a157.012137 157.012137 0 0 1 47.786303-39.886935z m312.463905 552.663218c17.456629-22.332782 42.081203-26.233705 64.316462-10.483729 20.431082 14.62846 24.917143 42.373772 10.48373 64.609031-21.064982 32.42642-42.568819 64.56027-64.023893 96.645359l-18.724429 28.184166c-10.581253 15.89626-10.581253 15.89626 0.048761 31.890043l0.243808 0.292569 16.578921 24.868382c21.455075 32.280135 42.910149 64.511508 64.072655 96.98669 9.264691 14.140845 12.190383 29.647012 8.045653 43.592811a46.469741 46.469741 0 0 1-26.916366 29.256919 43.690334 43.690334 0 0 1-17.310345 3.705877 46.811072 46.811072 0 0 1-38.326565-21.552598c-14.921029-21.698882-29.451966-43.690334-44.031664-65.5355l-21.94269-32.816512a30.085866 30.085866 0 0 0-5.266246-6.339c-1.804177-1.560369-1.999223-1.462846-3.51083-0.146284a30.280912 30.280912 0 0 0-5.0712 6.338999l-60.12297 90.452644c-10.922583 16.481398-20.284798 24.47829-32.280135 27.696551a50.516948 50.516948 0 0 1-12.775522 1.657892 44.51928 44.51928 0 0 1-39.496842-23.990674c-9.508499-16.432637-8.435745-33.547935 3.120738-51.004564l25.209713-37.887711c19.650898-29.598251 39.253034-59.294024 59.342786-88.648468 6.729092-9.752307 6.729092-15.993783 0-25.599805a6650.975612 6650.975612 0 0 1-83.138414-124.536955c-10.044876-15.311121-12.873045-31.597474-7.899369-46.177172 4.632346-13.653229 15.798737-24.136959 31.451189-29.403205 18.870713-6.241476 39.399319 2.681884 52.906264 22.674113 12.190383 18.090529 24.136959 36.327342 36.181058 54.466633l20.138513 30.475958c2.730646 4.14473 5.510053 8.289461 8.338222 12.336668 3.120738 4.388538 5.168723 5.510053 5.997669 5.510053 0.682661 0 2.633123-1.072754 5.461291-5.217484 9.752307-14.287129 19.212044-28.769305 28.769305-43.202718l22.479067-33.889266c5.607576-8.386984 11.410199-17.066537 17.651675-25.209713z" fill="#1890FF" p-id="2229"></path></svg>